<svg width="14" height="16" viewBox="0 0 14 16" fill="none" xmlns="http://www.w3.org/2000/svg">
<path fill-rule="evenodd" clip-rule="evenodd" d="M0.868663 15.9996C0.782684 15.9996 0.697514 15.9774 0.618021 15.932C0.442816 15.8305 0.333313 15.6301 0.333313 15.412V1.44245C0.333313 0.646436 0.923006 0 1.64815 0H12.3526C13.0778 0 13.6666 0.646436 13.6666 1.44245V15.412C13.6666 15.6301 13.5563 15.8305 13.3811 15.932C13.2051 16.0335 12.9926 16.021 12.8296 15.8972L6.99998 11.5254L1.1704 15.8972C1.08036 15.9649 0.974919 15.9996 0.868663 15.9996ZM1.64812 1.17529C1.51347 1.17529 1.40397 1.2955 1.40397 1.44241V14.2989L6.69821 10.3277C6.88071 10.1906 7.12 10.1906 7.30169 10.3277L12.5959 14.2989V1.44241C12.5959 1.2955 12.4864 1.17529 12.3526 1.17529H1.64812Z" fill="#FF5900"/>
</svg>
