<svg width="15" height="16" viewBox="0 0 15 16" fill="none" xmlns="http://www.w3.org/2000/svg">
<path fill-rule="evenodd" clip-rule="evenodd" d="M12.1634 10.2416C11.332 10.2416 10.5919 10.6192 10.0756 11.2069L6.14386 8.88108C6.23527 8.59703 6.29709 8.29963 6.29709 7.98442C6.29709 7.67277 6.23614 7.37715 6.1456 7.09578L10.0713 4.78692C10.5876 5.37815 11.3294 5.75748 12.1634 5.75748C13.7158 5.75748 14.9791 4.46636 14.9791 2.87874C14.9791 1.29111 13.7158 0 12.1634 0C10.6111 0 9.34867 1.29111 9.34867 2.87874C9.34867 3.19038 9.40961 3.48511 9.50016 3.76738L5.57359 6.07624C5.05818 5.485 4.31553 5.10568 3.48232 5.10568C1.92911 5.10568 0.666687 6.39679 0.666687 7.98442C0.666687 9.57293 1.92911 10.8649 3.48232 10.8649C4.31378 10.8649 5.05382 10.4874 5.56924 9.89883L9.50189 12.2246C9.41048 12.5087 9.34867 12.8061 9.34867 13.1204C9.34867 14.708 10.6111 16 12.1634 16C13.7158 16 14.9791 14.708 14.9791 13.1204C14.9791 11.5327 13.7158 10.2416 12.1634 10.2416ZM12.1635 1.17535C13.082 1.17535 13.829 1.93933 13.829 2.87873C13.829 3.81812 13.082 4.5821 12.1635 4.5821C11.2458 4.5821 10.4979 3.81812 10.4979 2.87873C10.4979 1.93933 11.2458 1.17535 12.1635 1.17535ZM3.4823 9.68868C2.56378 9.68868 1.81677 8.92469 1.81677 7.98441C1.81677 7.0459 2.56378 6.28103 3.4823 6.28103C4.39995 6.28103 5.14782 7.0459 5.14782 7.98441C5.14782 8.92469 4.39995 9.68868 3.4823 9.68868ZM12.1635 14.8247C11.2458 14.8247 10.4979 14.0608 10.4979 13.1205C10.4979 12.1811 11.2458 11.4171 12.1635 11.4171C13.082 11.4171 13.829 12.1811 13.829 13.1205C13.829 14.0608 13.082 14.8247 12.1635 14.8247Z" fill="#FF5900"/>
</svg>
